<?xml version="1.0" standalone="no"?><!DOCTYPE svg PUBLIC "-//W3C//DTD SVG 1.1//EN" "http://www.w3.org/Graphics/SVG/1.1/DTD/svg11.dtd"><svg t="1730092459233" class="icon" viewBox="0 0 1024 1024" version="1.1" xmlns="http://www.w3.org/2000/svg" p-id="2821" xmlns:xlink="http://www.w3.org/1999/xlink" width="200" height="200"><path d="M0 0m512 0l0 0q512 0 512 512l0 0q0 512-512 512l0 0q-512 0-512-512l0 0q0-512 512-512Z" fill="#F5DF4D" p-id="2822"></path><path d="M262.657024 505.70752c-4.97664-7.85408-1.93536-18.432 6.1952-22.92736l28.74368-15.94368c7.65952-4.2496 17.00864-1.49504 21.77024 5.85728a229.220352 229.220352 0 0 0 36.608 43.5712l-33.41312 57.86624a294.959104 294.959104 0 0 1-59.904-68.42368z m498.688 0c4.97664-7.85408 1.93536-18.432-6.1952-22.92736l-28.74368-15.94368c-7.65952-4.2496-17.00864-1.49504-21.77024 5.85728a229.3248 229.3248 0 0 1-263.95648 93.45024l-33.31072 57.7024a294.301696 294.301696 0 0 0 104.63232 19.22048 295.334912 295.334912 0 0 0 249.344-137.35936z" fill="#2E2E30" opacity=".4" p-id="2823"></path><path d="M718.03904 602.875904a326.30784 326.30784 0 0 1-84.8384 49.67424l55.808 96.6656 55.2448 23.552a16.387072 16.387072 0 0 0 22.72256-13.06624l7.168-59.648-56.10496-97.1776zM598.9376 396.591104a98.813952 98.813952 0 0 0-37.062656-133.501952 98.813952 98.813952 0 0 0-134.114304 34.782208 98.81088 98.81088 0 0 0-2.176 97.818624L249.856 700.053504l7.168 59.648a16.37888 16.37888 0 0 0 8.07424 12.228608 16.386048 16.386048 0 0 0 14.62784 0.878592l55.296-23.552 174.19264-301.83424c1.09568 0 2.19136 0.06144 3.29728 0.06144h2.29376l51.70176 89.56928a196.31616 196.31616 0 0 0 84.6336-50.0224l-52.20352-90.43968z m-86.4256-15.6672a32.256 32.256 0 1 1 0.002048-64.514048 32.256 32.256 0 0 1-0.002048 64.514048z" fill="#2E2E30" p-id="2824"></path></svg>